name rise49.8558peak67.6521fall70.3087.mot
datacolumns 19
datarows 35
range 13.29162000000000 13.34828500000000
endheader
time	ground_force1_vx	ground_force1_vy	ground_force1_vz	ground_force1_px	ground_force1_py	ground_force1_pz	ground_force2_vx	ground_force2_vy	ground_force2_vz	ground_force2_px	ground_force2_py	ground_force2_pz	ground_torque1_x	ground_torque1_y	ground_torque1_z	ground_torque2_x	ground_torque2_y	ground_torque2_z	
13.29162000000000	-41.91467700000000	819.19341099999997	63.03362500000000	0.20460900000000	0.00000000000000	0.11516000000000	-3.10422400000000	15.99921500000000	3.17031500000000	0.00000000000000	0.00000000000000	0.00000000000000	0.00000000000000	34.82239400000000	0.00000000000000	0.00000000000000	1.28331500000000	0.00000000000000	
13.29328500000000	-42.07042600000000	817.22155099999998	63.04886000000000	0.20391300000000	0.00000000000000	0.11513500000000	-3.93980000000000	21.31076500000000	4.06275500000000	0.00000000000000	0.00000000000000	0.00000000000000	0.00000000000000	34.71027500000000	0.00000000000000	0.00000000000000	1.64992200000000	0.00000000000000	
13.29495400000000	-42.22829800000000	815.10482400000001	63.03830000000000	0.20321700000000	0.00000000000000	0.11510700000000	-4.79270100000000	27.08897000000000	4.98788800000000	0.40411600000000	0.00000000000000	-0.07681600000000	0.00000000000000	34.58938100000000	0.00000000000000	0.00000000000000	3.67931200000000	0.00000000000000	
13.29661600000000	-42.38902100000000	812.84380299999998	63.00123000000000	0.20252200000000	0.00000000000000	0.11507400000000	-5.63197500000000	33.21387300000000	5.91581000000000	0.41106600000000	0.00000000000000	-0.07730200000000	0.00000000000000	34.45974300000000	0.00000000000000	0.00000000000000	4.41344900000000	0.00000000000000	
13.29828700000000	-42.55330700000000	810.43920300000002	62.93698600000000	0.20182500000000	0.00000000000000	0.11503800000000	-6.42705100000000	39.55909500000000	6.81670700000000	0.41719100000000	0.00000000000000	-0.07776800000000	0.00000000000000	34.32141100000000	0.00000000000000	0.00000000000000	5.13779300000000	0.00000000000000	
13.29994600000000	-42.72184300000000	807.89187100000004	62.84495100000000	0.20112800000000	0.00000000000000	0.11499800000000	-7.14993100000000	46.00223400000000	7.66305800000000	0.42261000000000	0.00000000000000	-0.07821700000000	0.00000000000000	34.17444800000000	0.00000000000000	0.00000000000000	5.83017000000000	0.00000000000000	
13.30162000000000	-42.89529400000000	805.20277399999998	62.72456000000000	0.20043000000000	0.00000000000000	0.11495300000000	-7.77700100000000	52.43406000000000	8.43146800000000	0.42742100000000	0.00000000000000	-0.07865000000000	0.00000000000000	34.01893500000000	0.00000000000000	0.00000000000000	6.47131700000000	0.00000000000000	
13.30327900000000	-43.07429500000000	802.37299099999996	62.57530500000000	0.19973000000000	0.00000000000000	0.11490500000000	-8.29027900000000	58.76553500000000	9.10396300000000	0.43170400000000	0.00000000000000	-0.07907100000000	0.00000000000000	33.85496900000000	0.00000000000000	0.00000000000000	7.04601200000000	0.00000000000000	
13.30494600000000	-43.25945100000000	799.40370099999996	62.39673300000000	0.19902700000000	0.00000000000000	0.11485300000000	-8.67803600000000	64.93218100000000	9.66866000000000	0.43552800000000	0.00000000000000	-0.07947900000000	0.00000000000000	33.68266400000000	0.00000000000000	0.00000000000000	7.54371600000000	0.00000000000000	
13.30662100000000	-43.45133300000000	796.29617399999995	62.18845100000000	0.19832200000000	0.00000000000000	0.11479600000000	-8.93481600000000	70.89574399999999	10.11983800000000	0.43895000000000	0.00000000000000	-0.07987700000000	0.00000000000000	33.50214700000000	0.00000000000000	0.00000000000000	7.95873600000000	0.00000000000000	
13.30828500000000	-43.65047500000000	793.05175899999995	61.95012300000000	0.19761300000000	0.00000000000000	0.11473500000000	-9.06094300000000	76.64343100000001	10.45749300000000	0.44202000000000	0.00000000000000	-0.08026500000000	0.00000000000000	33.31356500000000	0.00000000000000	0.00000000000000	8.28994900000000	0.00000000000000	
13.30994600000000	-43.85737200000000	789.67187500000000	61.68147900000000	0.19690100000000	0.00000000000000	0.11466900000000	-9.06163300000000	82.18517199999999	10.68650400000000	0.44477700000000	0.00000000000000	-0.08064400000000	0.00000000000000	33.11707400000000	0.00000000000000	0.00000000000000	8.54021200000000	0.00000000000000	
13.31161700000000	-44.07247700000000	786.15799900000002	61.38230900000000	0.19618500000000	0.00000000000000	0.11459900000000	-8.94586900000000	87.54948400000001	10.81553100000000	0.44725900000000	0.00000000000000	-0.08101500000000	0.00000000000000	32.91285000000000	0.00000000000000	0.00000000000000	8.71552700000000	0.00000000000000	
13.31328100000000	-44.29619800000000	782.51165700000001	61.05246600000000	0.19546500000000	0.00000000000000	0.11452400000000	-8.72516100000000	92.77851800000001	10.85580600000000	0.44949600000000	0.00000000000000	-0.08137900000000	0.00000000000000	32.70107900000000	0.00000000000000	0.00000000000000	8.82410600000000	0.00000000000000	
13.31495000000000	-44.52889400000000	778.73441400000002	60.69186900000000	0.19474100000000	0.00000000000000	0.11444400000000	-8.41230900000000	97.92284500000000	10.81991600000000	0.45151500000000	0.00000000000000	-0.08173400000000	0.00000000000000	32.48196100000000	0.00000000000000	0.00000000000000	8.87540700000000	0.00000000000000	
13.31661200000000	-44.77087600000000	774.82786299999998	60.30050200000000	0.19401200000000	0.00000000000000	0.11436000000000	-8.02029300000000	103.03644100000000	10.72068600000000	0.45333900000000	0.00000000000000	-0.08208300000000	0.00000000000000	32.25570900000000	0.00000000000000	0.00000000000000	8.87924300000000	0.00000000000000	
13.31828600000000	-45.02240000000000	770.79361800000004	59.87841600000000	0.19327800000000	0.00000000000000	0.11427000000000	-7.56132300000000	108.17225600000000	10.57023200000000	0.45498900000000	0.00000000000000	-0.08242600000000	0.00000000000000	32.02254600000000	0.00000000000000	0.00000000000000	8.84501300000000	0.00000000000000	
13.31994600000000	-45.28366800000000	766.63330299999996	59.42572500000000	0.19254000000000	0.00000000000000	0.11417600000000	-7.04612700000000	113.37858700000000	10.37923900000000	0.45648200000000	0.00000000000000	-0.08276100000000	0.00000000000000	31.78270600000000	0.00000000000000	0.00000000000000	8.78110700000000	0.00000000000000	
13.32161900000000	-45.55482400000000	762.34854600000006	58.94261000000000	0.19179600000000	0.00000000000000	0.11407700000000	-6.48347200000000	118.69642100000000	10.15646200000000	0.45783400000000	0.00000000000000	-0.08309100000000	0.00000000000000	31.53643300000000	0.00000000000000	0.00000000000000	8.69448200000000	0.00000000000000	
13.32328500000000	-45.83595100000000	757.94096999999999	58.42931800000000	0.19104800000000	0.00000000000000	0.11397300000000	-5.87992200000000	124.15776300000000	9.90846700000000	0.45906000000000	0.00000000000000	-0.08341500000000	0.00000000000000	31.28397900000000	0.00000000000000	0.00000000000000	8.59043400000000	0.00000000000000	
13.32494500000000	-46.12707100000000	753.41218400000002	57.88616100000000	0.19029400000000	0.00000000000000	0.11386400000000	-5.23980200000000	129.78490099999999	9.63957900000000	0.46017200000000	0.00000000000000	-0.08373300000000	0.00000000000000	31.02560300000000	0.00000000000000	0.00000000000000	8.47253400000000	0.00000000000000	
13.32661200000000	-46.42814300000000	748.76378000000000	57.31351400000000	0.18953500000000	0.00000000000000	0.11375000000000	-4.56534900000000	135.59050199999999	9.35200700000000	0.46118000000000	0.00000000000000	-0.08404500000000	0.00000000000000	30.76157000000000	0.00000000000000	0.00000000000000	8.34270000000000	0.00000000000000	
13.32828300000000	-46.73905800000000	743.99732300000005	56.71181800000000	0.18877100000000	0.00000000000000	0.11363100000000	-3.85698100000000	141.57836900000001	9.04610200000000	0.46209500000000	0.00000000000000	-0.08435100000000	0.00000000000000	30.49215000000000	0.00000000000000	0.00000000000000	8.20139400000000	0.00000000000000	
13.32994700000000	-47.05964000000000	739.11434999999994	56.08157500000000	0.18800300000000	0.00000000000000	0.11350700000000	-3.11366400000000	147.74468800000000	8.72071300000000	0.46292400000000	0.00000000000000	-0.08465100000000	0.00000000000000	30.21761700000000	0.00000000000000	0.00000000000000	8.04788000000000	0.00000000000000	
13.33161900000000	-47.38964300000000	734.11636099999998	55.42334700000000	0.18722900000000	0.00000000000000	0.11337800000000	-2.33332600000000	154.07957600000000	8.37357900000000	0.46367700000000	0.00000000000000	-0.08494600000000	0.00000000000000	29.93824800000000	0.00000000000000	0.00000000000000	7.88053000000000	0.00000000000000	
13.33328300000000	-47.72875200000000	729.00481800000000	54.73776000000000	0.18645100000000	0.00000000000000	0.11324400000000	-1.51326600000000	160.56876399999999	8.00174400000000	0.46436000000000	0.00000000000000	-0.08523500000000	0.00000000000000	29.65431900000000	0.00000000000000	0.00000000000000	7.69714700000000	0.00000000000000	
13.33495000000000	-48.07658000000000	723.78113699999994	54.02549400000000	0.18566800000000	0.00000000000000	0.11310500000000	-0.65054400000000	167.19525999999999	7.60193800000000	0.46497900000000	0.00000000000000	-0.08551900000000	0.00000000000000	29.36610800000000	0.00000000000000	0.00000000000000	7.49525800000000	0.00000000000000	
13.33661300000000	-48.43266600000000	718.44669099999999	53.28728800000000	0.18488200000000	0.00000000000000	0.11296000000000	0.25767400000000	173.94088199999999	7.17092300000000	0.46554000000000	0.00000000000000	-0.08579700000000	0.00000000000000	29.07389100000000	0.00000000000000	0.00000000000000	7.27238900000000	0.00000000000000	
13.33828300000000	-48.79647600000000	713.00280299999997	52.52393500000000	0.18409100000000	0.00000000000000	0.11281100000000	1.21384500000000	180.78755799999999	6.70576500000000	0.46604800000000	0.00000000000000	-0.08606900000000	0.00000000000000	28.77794000000000	0.00000000000000	0.00000000000000	7.02627900000000	0.00000000000000	
13.33995100000000	-49.16740500000000	707.45074599999998	51.73628000000000	0.18329700000000	0.00000000000000	0.11265700000000	2.21984800000000	187.71836200000001	6.20404400000000	0.46650800000000	0.00000000000000	-0.08633500000000	0.00000000000000	28.47852600000000	0.00000000000000	0.00000000000000	6.75504700000000	0.00000000000000	
13.34161200000000	-49.54477100000000	701.79174200000000	50.92521900000000	0.18250000000000	0.00000000000000	0.11249800000000	3.27685400000000	194.71824599999999	5.66398700000000	0.46692300000000	0.00000000000000	-0.08659600000000	0.00000000000000	28.17591000000000	0.00000000000000	0.00000000000000	6.45729800000000	0.00000000000000	
13.34328500000000	-49.92782200000000	696.02696200000003	50.09169500000000	0.18170000000000	0.00000000000000	0.11233400000000	4.38526900000000	201.77448300000000	5.08453400000000	0.46729700000000	0.00000000000000	-0.08685000000000	0.00000000000000	27.87035200000000	0.00000000000000	0.00000000000000	6.13217800000000	0.00000000000000	
13.34494600000000	-50.31573000000000	690.15752699999996	49.23669800000000	0.18089700000000	0.00000000000000	0.11216500000000	5.54473400000000	208.87684100000001	4.46534500000000	0.46763300000000	0.00000000000000	-0.08709900000000	0.00000000000000	27.56210000000000	0.00000000000000	0.00000000000000	5.77938300000000	0.00000000000000	
13.34661600000000	-50.70759700000000	684.18450900000005	48.36125900000000	0.18009300000000	0.00000000000000	0.11199200000000	6.75417400000000	216.01753800000000	3.80675800000000	0.46793600000000	0.00000000000000	-0.08734200000000	0.00000000000000	27.25139400000000	0.00000000000000	0.00000000000000	5.39912500000000	0.00000000000000	
13.34828500000000	-51.10245500000000	678.10893399999998	47.46644800000000	0.17928700000000	0.00000000000000	0.11181300000000	8.01188600000000	223.19101100000000	3.10970700000000	0.46820600000000	0.00000000000000	-0.08757900000000	0.00000000000000	26.93846700000000	0.00000000000000	0.00000000000000	4.99207400000000	0.00000000000000	
